HIERARCHY
ROOT Hips
{
	OFFSET 0.000000 0.000000 0.000000
	CHANNELS 6 Xposition Yposition Zposition Zrotation Yrotation Xrotation 
	JOINT LHipJoint
	{
		OFFSET 0.000000 0.000000 0.000000
		CHANNELS 3 Zrotation Yrotation Xrotation
		JOINT LeftUpLeg
		{
			OFFSET 1.363060 -1.794630 0.839290
			CHANNELS 3 Zrotation Yrotation Xrotation
			JOINT LeftLeg
			{
				OFFSET 2.448110 -6.726130 0.000000
				CHANNELS 3 Zrotation Yrotation Xrotation
				JOINT LeftFoot
				{
					OFFSET 2.562200 -7.039590 0.000000
					CHANNELS 3 Zrotation Yrotation Xrotation
					JOINT LeftToeBase
					{
						OFFSET 0.157640 -0.433110 2.322550
						CHANNELS 3 Zrotation Yrotation Xrotation
						End Site
						{
							OFFSET 0.000000 0.000000 0.000000
						}
					}
				}
			}
		}
	}
	JOINT RHipJoint
	{
		OFFSET 0.000000 0.000000 0.000000
		CHANNELS 3 Zrotation Yrotation Xrotation
		JOINT RightUpLeg
		{
			OFFSET -1.305520 -1.794630 0.839290
			CHANNELS 3 Zrotation Yrotation Xrotation
			JOINT RightLeg
			{
				OFFSET -2.542530 -6.985550 0.000000
				CHANNELS 3 Zrotation Yrotation Xrotation
				JOINT RightFoot
				{
					OFFSET -2.568260 -7.056230 0.000000
					CHANNELS 3 Zrotation Yrotation Xrotation
					JOINT RightToeBase
					{
						OFFSET -0.164730 -0.452590 2.363150
						CHANNELS 3 Zrotation Yrotation Xrotation
						End Site
						{
							OFFSET 0.000000 0.000000 0.000000
						}
					}
				}
			}
		}
	}
	JOINT LowerBack
	{
		OFFSET 0.000000 0.000000 0.000000
		CHANNELS 3 Zrotation Yrotation Xrotation
		JOINT Spine
		{
			OFFSET 0.028270 2.035590 -0.193380
			CHANNELS 3 Zrotation Yrotation Xrotation
			JOINT Spine1
			{
				OFFSET 0.056720 2.048850 -0.042750
				CHANNELS 3 Zrotation Yrotation Xrotation
				JOINT Neck
				{
					OFFSET 0.000000 0.000000 0.000000
					CHANNELS 3 Zrotation Yrotation Xrotation
					JOINT Neck1
					{
						OFFSET -0.054170 1.746240 0.172020
						CHANNELS 3 Zrotation Yrotation Xrotation
						JOINT Head
						{
							OFFSET 0.104070 1.761360 -0.123970
							CHANNELS 3 Zrotation Yrotation Xrotation
							End Site
							{
								OFFSET 0.000000 0.000000 0.000000
							}
						}
					}
				}
				JOINT LeftShoulder
				{
					OFFSET 0.000000 0.000000 0.000000
					CHANNELS 3 Zrotation Yrotation Xrotation
					JOINT LeftArm
					{
						OFFSET 3.362410 1.200890 -0.311210
						CHANNELS 3 Zrotation Yrotation Xrotation
						JOINT LeftForeArm
						{
							OFFSET 4.983000 -0.000000 -0.000000
							CHANNELS 3 Zrotation Yrotation Xrotation
							JOINT LeftHand
							{
								OFFSET 3.483560 -0.000000 -0.000000
								CHANNELS 3 Zrotation Yrotation Xrotation
								JOINT LeftFingerBase
								{
									OFFSET 0.000000 0.000000 0.000000
									CHANNELS 3 Zrotation Yrotation Xrotation
									JOINT LeftHandIndex1
									{
										OFFSET 0.715260 -0.000000 -0.000000
										CHANNELS 3 Zrotation Yrotation Xrotation
										End Site
										{
											OFFSET 0.000000 0.000000 0.000000
										}
									}
								}
								JOINT LThumb
								{
									OFFSET 0.000000 0.000000 0.000000
									CHANNELS 3 Zrotation Yrotation Xrotation
									End Site
									{
										OFFSET 0.000000 0.000000 0.000000
									}
								}
							}
						}
					}
				}
				JOINT RightShoulder
				{
					OFFSET 0.000000 0.000000 0.000000
					CHANNELS 3 Zrotation Yrotation Xrotation
					JOINT RightArm
					{
						OFFSET -3.136600 1.374050 -0.404650
						CHANNELS 3 Zrotation Yrotation Xrotation
						JOINT RightForeArm
						{
							OFFSET -5.241900 -0.000000 -0.000000
							CHANNELS 3 Zrotation Yrotation Xrotation
							JOINT RightHand
							{
								OFFSET -3.444170 -0.000000 -0.000000
								CHANNELS 3 Zrotation Yrotation Xrotation
								JOINT RightFingerBase
								{
									OFFSET 0.000000 0.000000 0.000000
									CHANNELS 3 Zrotation Yrotation Xrotation
									JOINT RightHandIndex1
									{
										OFFSET -0.622530 -0.000000 -0.000000
										CHANNELS 3 Zrotation Yrotation Xrotation
										End Site
										{
											OFFSET 0.000000 0.000000 0.000000
										}
									}
								}
								JOINT RThumb
								{
									OFFSET 0.000000 0.000000 0.000000
									CHANNELS 3 Zrotation Yrotation Xrotation
									End Site
									{
										OFFSET 0.000000 0.000000 0.000000
									}
								}
							}
						}
					}
				}
			}
		}
	}
}
MOTION
Frames: 7
Frame Time: 0.016667
-1.810222 17.930297 24.080498 1.108234 -6.159234 10.169710 -0.522632 14.608459 -1.217190 -24.147646 -4.564569 -7.556078 -7.170045 -8.414744 -19.250127 2.580621 10.461992 30.371414 0.000000 0.000000 0.000000 8.574044 -17.718051 -3.807597 21.740612 17.407060 -15.192178 -34.209774 -13.959471 65.583577 27.430707 -58.193363 15.120242 0.000000 0.000000 0.000000 -6.804699 1.118613 11.974059 8.117179 1.489762 -8.747961 -0.799453 1.633037 -5.673228 -0.025247 -0.084200 -0.714802 1.802105 -0.091369 3.276797 0.000000 0.000000 0.000000 -0.752111 14.561625 11.965104 -70.817126 -5.019417 5.969320 -168.743084 -88.276646 -179.725679 4.064023 -10.107193 0.135085 4.087192 -10.098804 0.000000 0.000000 0.000000 0.000000 0.000000 0.000000 0.000000 0.561875 -14.874752 8.137505 57.619375 5.808874 16.132909 29.392504 59.092384 0.253105 0.641281 9.038766 0.125724 0.634976 9.042502 0.000000 0.000000 0.000000 0.000000 0.000000 0.000000 0.000000 
-1.771147 17.995510 24.322886 1.255052 -6.012481 10.260417 -1.094513 14.645790 -1.064228 -24.019249 -4.790832 -7.853556 -6.865938 -7.741601 -17.295152 2.073966 9.211295 27.141914 0.000000 0.000000 0.000000 8.266016 -17.669574 -2.941882 20.561411 16.741758 -15.365329 -33.093837 -14.696527 64.401467 27.037172 -58.068835 15.726133 0.000000 0.000000 0.000000 -5.893398 1.168337 11.201500 7.403811 1.345617 -7.647158 -1.407765 1.635360 -5.930777 0.236678 -0.143278 -0.767594 1.644475 -0.104515 3.392587 0.000000 0.000000 0.000000 -1.069811 14.469333 11.694834 -70.269538 -4.938373 7.242699 -169.675455 -88.898857 -179.714149 4.111438 -10.441800 0.140579 4.137222 -10.432704 0.000000 0.000000 0.000000 0.000000 0.000000 0.000000 0.000000 -0.005950 -14.585279 8.351380 58.950288 5.361929 16.989071 28.146673 61.890394 0.286852 0.555989 9.777888 0.142391 0.548683 9.782000 0.000000 0.000000 0.000000 0.000000 0.000000 0.000000 0.000000 
-1.750079 18.047346 24.541121 1.409177 -5.644636 10.285132 -1.493851 14.483763 -1.086692 -23.960463 -4.911207 -7.881548 -6.540871 -7.172050 -15.511203 1.683947 8.035461 24.332737 0.000000 0.000000 0.000000 8.088281 -17.343700 -2.309400 19.350978 15.839686 -15.316852 -31.819422 -15.591996 63.336167 26.735443 -58.028894 16.086930 0.000000 0.000000 0.000000 -5.213302 1.188406 10.723902 6.718047 1.196035 -6.818845 -1.812737 1.596306 -6.037280 0.540477 -0.193039 -0.905085 1.551182 -0.112579 3.485992 0.000000 0.000000 0.000000 -1.130428 14.213911 11.446817 -69.876556 -4.857210 8.689293 -170.970833 -89.681621 -179.695549 4.088117 -10.798031 0.149622 4.115976 -10.788660 0.000000 0.000000 0.000000 0.000000 0.000000 0.000000 0.000000 -0.685339 -14.218746 8.508994 60.432242 4.855879 17.983842 26.445450 65.186370 0.319323 0.400295 10.494140 0.158364 0.391423 10.498536 0.000000 0.000000 0.000000 0.000000 0.000000 0.000000 0.000000 
-1.729900 18.097390 24.751500 1.610248 -5.504882 10.179204 -1.750408 14.131192 -1.325067 -24.098020 -4.677606 -7.379356 -6.018897 -6.688625 -14.191902 1.390697 7.166791 22.215231 0.000000 0.000000 0.000000 7.947010 -16.969621 -1.651460 18.109493 14.933769 -15.167925 -30.687421 -16.377267 62.212737 26.372908 -57.925489 16.566849 0.000000 0.000000 0.000000 -4.670932 1.254743 10.335065 6.063281 1.101880 -5.958085 -2.159997 1.601181 -6.169478 0.787542 -0.229604 -1.020164 1.491514 -0.117825 3.552697 0.000000 0.000000 0.000000 -1.194174 14.001122 11.234327 -69.510488 -4.821881 9.915821 7.870956 -89.625735 0.320517 4.054580 -11.101322 0.157421 4.084246 -11.091794 0.000000 0.000000 0.000000 0.000000 0.000000 0.000000 0.000000 -1.232776 -13.897593 8.573674 61.687831 4.436458 18.627785 24.925185 67.712963 0.344649 0.242976 11.083810 0.170767 0.232326 11.088361 0.000000 0.000000 0.000000 0.000000 0.000000 0.000000 0.000000 
-1.692963 18.157620 24.971665 1.715433 -5.521335 10.250390 -2.587356 13.935028 -1.022281 -23.549717 -4.825316 -7.650874 -5.510306 -6.282953 -13.052184 1.128701 6.403095 20.279782 0.000000 0.000000 0.000000 7.946999 -16.761793 -0.872293 16.769416 14.202516 -15.298001 -29.605071 -17.011473 60.948352 25.910172 -57.769944 17.260181 0.000000 0.000000 0.000000 -3.815073 1.315093 9.443221 5.345756 1.012438 -4.690614 -2.593444 1.625455 -6.544926 0.967695 -0.261857 -1.047677 1.382364 -0.121488 3.544409 0.000000 0.000000 0.000000 -1.548614 13.902800 11.047217 -68.974371 -4.746884 10.965116 6.951965 -89.029377 0.334689 4.034622 -11.346373 0.164298 4.065863 -11.336698 0.000000 0.000000 0.000000 0.000000 0.000000 0.000000 0.000000 -1.497197 -13.716498 8.592859 62.531745 4.062836 19.011838 23.679621 69.477086 0.364542 0.099864 11.557582 0.180475 0.087461 11.562194 0.000000 0.000000 0.000000 0.000000 0.000000 0.000000 0.000000 
-1.660493 18.212629 25.179686 1.825344 -5.570329 10.297250 -3.419445 13.679173 -0.725905 -22.959346 -4.911984 -7.850272 -5.016024 -5.940320 -12.126250 0.924169 5.768989 18.644903 0.000000 0.000000 0.000000 8.020887 -16.506966 -0.164474 15.444203 13.469500 -15.371351 -28.567085 -17.595705 59.727155 25.467463 -57.644936 17.937707 0.000000 0.000000 0.000000 -3.012716 1.368481 8.590202 4.509704 0.907458 -3.336627 -2.944743 1.623832 -6.867172 1.150271 -0.282736 -1.162598 1.379393 -0.122401 3.563338 0.000000 0.000000 0.000000 -1.758709 13.866793 10.804703 -68.543759 -4.832069 11.674962 6.411475 -88.651074 0.344189 4.035511 -11.504850 0.168897 4.067875 -11.495015 0.000000 0.000000 0.000000 0.000000 0.000000 0.000000 0.000000 -1.832203 -13.592343 8.628395 63.476161 3.945113 18.744116 23.296479 69.778473 0.381518 0.056214 12.016408 0.188768 0.042676 12.021146 0.000000 0.000000 0.000000 0.000000 0.000000 0.000000 0.000000 
-1.633215 18.261807 25.375158 1.931853 -5.656797 10.332002 -4.219997 13.363560 -0.455115 -22.353539 -4.927749 -7.954632 -4.534587 -5.664175 -11.429969 0.768263 5.257005 17.279490 0.000000 0.000000 0.000000 8.164643 -16.203571 0.464470 14.152755 12.743012 -15.389529 -27.589002 -18.129078 58.562329 25.051802 -57.544812 18.588315 0.000000 0.000000 0.000000 -2.294643 1.407969 7.817545 3.614886 0.794106 -1.994476 -3.235237 1.595570 -7.096663 1.336119 -0.292965 -1.358339 1.482279 -0.121050 3.618121 0.000000 0.000000 0.000000 -1.820887 13.912191 10.504826 -68.230137 -5.068322 12.027751 6.299986 -88.517389 0.348457 4.064174 -11.572544 0.170950 4.097184 -11.562491 0.000000 0.000000 0.000000 0.000000 0.000000 0.000000 0.000000 -2.262199 -13.521766 8.714071 64.525838 4.111761 17.826320 23.858581 68.537252 0.396922 0.132777 12.468309 0.196353 0.119169 12.473309 0.000000 0.000000 0.000000 0.000000 0.000000 0.000000 0.000000 
